<svg version="1.2" xmlns="http://www.w3.org/2000/svg" viewBox="0 0 1000 1000" width="1000" height="1000">
	<title>logo (1)</title>
	<defs>
		<linearGradient id="g1" x1="108.6" y1="576.5" x2="177" y2="576.5" gradientUnits="userSpaceOnUse">
			<stop offset="0" stop-color="#000000"/>
			<stop offset="1" stop-color="#000000"/>
		</linearGradient>
		<linearGradient id="g2" x1="110" y1="575" x2="274" y2="575" gradientUnits="userSpaceOnUse">
			<stop offset="0" stop-color="#000000"/>
			<stop offset="1" stop-color="#000000"/>
		</linearGradient>
		<linearGradient id="g3" x1="225" y1="568" x2="272" y2="568" gradientUnits="userSpaceOnUse">
			<stop offset="0" stop-color="#000000"/>
			<stop offset="1" stop-color="#000000"/>
		</linearGradient>
		<linearGradient id="g4" x1="300" y1="519.5" x2="418" y2="519.5" gradientUnits="userSpaceOnUse">
			<stop offset="0" stop-color="#000000"/>
			<stop offset="1" stop-color="#000000"/>
		</linearGradient>
		<linearGradient id="g5" x1="296" y1="585.5" x2="359" y2="585.5" gradientUnits="userSpaceOnUse">
			<stop offset="0" stop-color="#000000"/>
			<stop offset="1" stop-color="#000000"/>
		</linearGradient>
		<linearGradient id="g6" x1="0" y1="0" x2="0" y2="0" gradientUnits="userSpaceOnUse">
			<stop offset="0" stop-color="#000000"/>
			<stop offset="1" stop-color="#000000"/>
		</linearGradient>
		<linearGradient id="g7" x1="394.6" y1="566.3" x2="486" y2="566.3" gradientUnits="userSpaceOnUse">
			<stop offset="0" stop-color="#000000"/>
			<stop offset="1" stop-color="#000000"/>
		</linearGradient>
	</defs>
	<style>
		.s0 { fill: none;stroke: #ffffff;stroke-width: 7.8 } 
		.s1 { fill: none;stroke: url(#g1);stroke-width: 17 } 
		.s2 { fill: none;stroke: url(#g2);stroke-width: 16 } 
		.s3 { fill: none;stroke: url(#g3);stroke-width: 17 } 
		.s4 { fill: none;stroke: url(#g4);stroke-width: 17 } 
		.s5 { fill: none;stroke: url(#g5);stroke-width: 16 } 
		.s6 { fill: none;stroke: url(#g6);stroke-width: 16 } 
		.s7 { fill: none;stroke: url(#g7);stroke-width: 17 } 
	</style>
	<path id="T" class="s0" d="m213 384h-48l7-42 148 2-6 39-50 2-14 104-55-1z"/>
	<path id="R" class="s0" d="m345 342l104 1 25.7 14.9 4.3 16.1 1.1 15.7-3.1 20.3-8.6 13.3-23.4 14.7 27 49h-53l-23-46h-18l-7 48-51-3z"/>
	<path id="Shape 2" class="s0" d="m712 363"/>
	<path id="k" class="s1" d="m119 634l-10.4-19.7 68.4-95.3"/>
	<path id="k2" class="s2" d="m274 614l-87.5-20.6-76.5-9.4 114-48"/>
	<path id="I" class="s3" d="m272 519l-47 98"/>
	<path id="t" class="s4" d="m300 521l118-3"/>
	<path id="t2" class="s5" d="m359 523l-63 125"/>
	<path id="Shape 1" class="s6" d="m793 386"/>
	<path id="c" class="s7" d="m486 556l-38 41-23.7 17.3-25.8 4.2-3.9-16.8 3.8-17.2 21.2-40.4 39.4-30.1 12 14"/>
</svg>